<svg xmlns="http://www.w3.org/2000/svg" xmlns:xlink="http://www.w3.org/1999/xlink" width="163" zoomAndPan="magnify" viewBox="0 0 122.25 95.999999" height="128" preserveAspectRatio="xMidYMid meet" version="1.0"><defs><g/><clipPath id="243a96ae6e"><path d="M 88 47 L 121.503906 47 L 121.503906 68 L 88 68 Z M 88 47 " clip-rule="nonzero"/></clipPath><clipPath id="656718215c"><path d="M 12 0.292969 L 108 0.292969 L 108 95.425781 L 12 95.425781 Z M 12 0.292969 " clip-rule="nonzero"/></clipPath><clipPath id="e71a0db892"><path d="M 48.875 30.78125 L 73.144531 30.78125 L 73.144531 49.46875 L 48.875 49.46875 Z M 48.875 30.78125 " clip-rule="nonzero"/></clipPath><clipPath id="e780810486"><path d="M 47 19 L 74.648438 19 L 74.648438 33.355469 L 47 33.355469 Z M 47 19 " clip-rule="nonzero"/></clipPath><clipPath id="65025801fe"><path d="M 58 11.753906 L 64 11.753906 L 64 17 L 58 17 Z M 58 11.753906 " clip-rule="nonzero"/></clipPath></defs><path fill="#f3f6f7" d="M 33.46875 67.921875 L 0 67.921875 L 6.828125 57.515625 L 0 47.566406 L 33.082031 47.566406 C 32.207031 50.628906 31.746094 53.828125 31.746094 57.117188 C 31.746094 60.859375 32.34375 64.480469 33.46875 67.921875 " fill-opacity="1" fill-rule="nonzero"/><g clip-path="url(#243a96ae6e)"><path fill="#f3f6f7" d="M 88.007812 67.964844 L 121.476562 67.964844 L 114.648438 57.558594 L 121.476562 47.613281 L 88.394531 47.613281 C 89.269531 50.675781 89.730469 53.871094 89.730469 57.160156 C 89.730469 60.902344 89.132812 64.527344 88.007812 67.964844 " fill-opacity="1" fill-rule="nonzero"/></g><g clip-path="url(#656718215c)"><path fill="#384860" d="M 107.558594 47.804688 C 107.558594 49.339844 105.480469 50.761719 105.335938 52.261719 C 105.1875 53.789062 106.949219 55.585938 106.65625 57.066406 C 106.359375 58.570312 104.042969 59.558594 103.605469 61.003906 C 103.160156 62.46875 104.539062 64.574219 103.957031 65.972656 C 103.371094 67.386719 100.90625 67.898438 100.191406 69.234375 C 99.472656 70.582031 100.410156 72.917969 99.5625 74.179688 C 98.71875 75.445312 96.195312 75.46875 95.234375 76.644531 C 94.265625 77.820312 94.730469 80.296875 93.65625 81.371094 C 92.582031 82.445312 90.105469 81.980469 88.929688 82.945312 C 87.753906 83.910156 87.730469 86.429688 86.464844 87.277344 C 85.203125 88.121094 82.867188 87.183594 81.523438 87.90625 C 80.1875 88.621094 79.671875 91.085938 78.261719 91.671875 C 76.863281 92.25 74.753906 90.875 73.289062 91.316406 C 71.84375 91.753906 70.855469 94.074219 69.351562 94.371094 C 67.871094 94.664062 66.074219 92.898438 64.546875 93.046875 C 63.050781 93.195312 61.625 95.273438 60.089844 95.273438 C 58.550781 95.273438 57.128906 93.195312 55.632812 93.046875 C 54.105469 92.898438 52.308594 94.664062 50.828125 94.371094 C 49.324219 94.074219 48.335938 91.753906 46.890625 91.316406 C 45.425781 90.875 43.316406 92.25 41.917969 91.671875 C 40.507812 91.085938 39.992188 88.621094 38.65625 87.902344 C 37.3125 87.183594 34.972656 88.121094 33.714844 87.277344 C 32.449219 86.429688 32.421875 83.910156 31.25 82.945312 C 30.074219 81.980469 27.597656 82.445312 26.523438 81.371094 C 25.449219 80.296875 25.914062 77.816406 24.945312 76.644531 C 23.980469 75.46875 21.464844 75.445312 20.613281 74.179688 C 19.769531 72.917969 20.707031 70.582031 19.988281 69.234375 C 19.273438 67.898438 16.804688 67.386719 16.222656 65.972656 C 15.640625 64.574219 17.019531 62.46875 16.574219 61.003906 C 16.136719 59.558594 13.820312 58.570312 13.523438 57.066406 C 13.230469 55.585938 14.992188 53.789062 14.84375 52.261719 C 14.699219 50.761719 12.621094 49.339844 12.621094 47.804688 C 12.621094 46.265625 14.699219 44.84375 14.84375 43.34375 C 14.992188 41.820312 13.230469 40.019531 13.523438 38.539062 C 13.820312 37.039062 16.136719 36.050781 16.574219 34.601562 C 17.019531 33.140625 15.640625 31.03125 16.222656 29.632812 C 16.804688 28.222656 19.273438 27.707031 19.988281 26.371094 C 20.707031 25.027344 19.773438 22.6875 20.617188 21.425781 C 21.464844 20.160156 23.984375 20.136719 24.949219 18.964844 C 25.914062 17.789062 25.449219 15.3125 26.523438 14.238281 C 27.597656 13.160156 30.074219 13.625 31.25 12.660156 C 32.421875 11.695312 32.449219 9.175781 33.714844 8.328125 C 34.976562 7.484375 37.3125 8.421875 38.65625 7.703125 C 39.992188 6.984375 40.507812 4.519531 41.917969 3.9375 C 43.316406 3.355469 45.425781 4.730469 46.890625 4.289062 C 48.335938 3.851562 49.324219 1.53125 50.828125 1.238281 C 52.308594 0.945312 54.105469 2.707031 55.632812 2.558594 C 57.128906 2.414062 58.550781 0.332031 60.089844 0.332031 C 61.625 0.332031 63.050781 2.414062 64.546875 2.558594 C 66.074219 2.707031 67.871094 0.945312 69.351562 1.238281 C 70.855469 1.53125 71.84375 3.851562 73.289062 4.289062 C 74.753906 4.730469 76.863281 3.355469 78.261719 3.9375 C 79.671875 4.519531 80.1875 6.984375 81.523438 7.703125 C 82.867188 8.421875 85.203125 7.484375 86.464844 8.328125 C 87.730469 9.175781 87.757812 11.695312 88.929688 12.660156 C 90.105469 13.625 92.582031 13.164062 93.65625 14.238281 C 94.730469 15.3125 94.265625 17.789062 95.234375 18.964844 C 96.195312 20.136719 98.71875 20.160156 99.5625 21.425781 C 100.410156 22.6875 99.472656 25.027344 100.191406 26.371094 C 100.90625 27.707031 103.375 28.222656 103.957031 29.632812 C 104.539062 31.03125 103.160156 33.140625 103.605469 34.601562 C 104.042969 36.050781 106.359375 37.039062 106.65625 38.539062 C 106.949219 40.019531 105.1875 41.820312 105.335938 43.34375 C 105.480469 44.84375 107.558594 46.265625 107.558594 47.804688 " fill-opacity="1" fill-rule="nonzero"/></g><path fill="#f4edd8" d="M 96.921875 47.804688 C 96.921875 68.144531 80.433594 84.636719 60.089844 84.636719 C 39.75 84.636719 23.257812 68.144531 23.257812 47.804688 C 23.257812 27.460938 39.75 10.972656 60.089844 10.972656 C 80.433594 10.972656 96.921875 27.460938 96.921875 47.804688 " fill-opacity="1" fill-rule="nonzero"/><path fill="#f4edd8" d="M 60.089844 8.007812 C 38.144531 8.007812 20.292969 25.859375 20.292969 47.804688 C 20.292969 69.746094 38.144531 87.601562 60.089844 87.601562 C 82.035156 87.601562 99.886719 69.746094 99.886719 47.804688 C 99.886719 25.859375 82.035156 8.007812 60.089844 8.007812 Z M 60.089844 89.894531 C 36.882812 89.894531 18 71.011719 18 47.804688 C 18 24.59375 36.882812 5.710938 60.089844 5.710938 C 83.296875 5.710938 102.179688 24.59375 102.179688 47.804688 C 102.179688 71.011719 83.296875 89.894531 60.089844 89.894531 " fill-opacity="1" fill-rule="nonzero"/><path fill="#ffffff" d="M 107.609375 75.347656 L 12.816406 75.347656 L 12.816406 51.28125 L 107.609375 51.28125 L 107.609375 75.347656 " fill-opacity="1" fill-rule="nonzero"/><g clip-path="url(#e71a0db892)"><path fill="#384860" d="M 72.839844 30.78125 L 49.121094 30.78125 C 48.996094 30.78125 48.894531 30.886719 48.894531 31.011719 L 48.894531 49.257812 C 48.894531 49.382812 48.996094 49.484375 49.121094 49.484375 L 72.839844 49.484375 C 72.964844 49.484375 73.070312 49.382812 73.070312 49.257812 L 73.070312 31.011719 C 73.070312 30.886719 72.964844 30.78125 72.839844 30.78125 Z M 72.613281 31.238281 L 72.613281 34.433594 L 49.347656 34.433594 L 49.347656 31.238281 Z M 49.347656 49.027344 L 49.347656 34.886719 L 72.613281 34.886719 L 72.613281 49.027344 Z M 49.347656 49.027344 " fill-opacity="1" fill-rule="nonzero"/></g><path fill="#384860" d="M 58.40625 38.148438 C 58.316406 38.058594 58.171875 38.058594 58.082031 38.148438 L 55.347656 40.882812 C 55.257812 40.972656 55.257812 41.117188 55.347656 41.207031 L 58.082031 43.945312 C 58.125 43.988281 58.183594 44.011719 58.242188 44.011719 C 58.300781 44.011719 58.359375 43.988281 58.40625 43.945312 C 58.492188 43.855469 58.492188 43.710938 58.40625 43.621094 L 55.828125 41.046875 L 58.40625 38.46875 C 58.492188 38.382812 58.492188 38.238281 58.40625 38.148438 Z M 58.40625 38.148438 " fill-opacity="1" fill-rule="nonzero"/><path fill="#384860" d="M 61.949219 37.175781 C 61.824219 37.144531 61.703125 37.21875 61.671875 37.339844 L 59.847656 44.640625 C 59.816406 44.761719 59.890625 44.886719 60.011719 44.917969 C 60.03125 44.921875 60.050781 44.921875 60.066406 44.921875 C 60.171875 44.921875 60.261719 44.855469 60.289062 44.75 L 62.113281 37.453125 C 62.144531 37.332031 62.070312 37.207031 61.949219 37.175781 Z M 61.949219 37.175781 " fill-opacity="1" fill-rule="nonzero"/><path fill="#384860" d="M 63.878906 38.148438 C 63.789062 38.058594 63.644531 38.058594 63.554688 38.148438 C 63.46875 38.238281 63.46875 38.382812 63.554688 38.46875 L 66.132812 41.046875 L 63.554688 43.621094 C 63.46875 43.710938 63.46875 43.855469 63.554688 43.945312 C 63.601562 43.988281 63.660156 44.011719 63.71875 44.011719 C 63.777344 44.011719 63.835938 43.988281 63.878906 43.945312 L 66.617188 41.207031 C 66.703125 41.117188 66.703125 40.972656 66.617188 40.886719 Z M 63.878906 38.148438 " fill-opacity="1" fill-rule="nonzero"/><g clip-path="url(#e780810486)"><path fill="#384860" d="M 60.734375 19.550781 C 60.734375 19.550781 60.019531 19.558594 59.632812 19.441406 C 59.25 19.324219 58.703125 18.875 58.285156 19.132812 C 57.867188 19.390625 56.175781 22.160156 55.40625 22.933594 C 54.636719 23.703125 53.992188 27.449219 53.972656 29.652344 C 53.972656 29.652344 56.550781 28.886719 58.949219 29.035156 C 58.949219 29.035156 57.558594 29.074219 55.867188 29.535156 C 54.175781 29.996094 53.898438 30.132812 53.898438 30.132812 C 54.550781 31.132812 56.210938 31.363281 57.824219 31.371094 C 56.902344 31.417969 55.910156 31.390625 55.097656 31.203125 C 55.097656 31.203125 53.898438 30.863281 52.496094 29.226562 C 51.09375 27.585938 49.582031 26.335938 48.332031 26.390625 C 47.078125 26.441406 46.738281 27.832031 47.507812 29.246094 C 48.277344 30.660156 50.738281 33.304688 60.734375 33.304688 C 70.730469 33.304688 73.195312 30.660156 73.964844 29.246094 C 74.734375 27.832031 74.390625 26.441406 73.140625 26.390625 C 71.886719 26.335938 70.378906 27.585938 68.976562 29.226562 C 67.574219 30.863281 66.375 31.203125 66.375 31.203125 C 65.5625 31.390625 64.570312 31.417969 63.648438 31.371094 C 65.261719 31.363281 66.921875 31.132812 67.574219 30.132812 C 67.574219 30.132812 67.296875 29.996094 65.605469 29.535156 C 63.914062 29.074219 62.523438 29.035156 62.523438 29.035156 C 64.921875 28.886719 67.5 29.652344 67.5 29.652344 C 67.480469 27.449219 66.835938 23.703125 66.066406 22.933594 C 65.296875 22.160156 63.605469 19.390625 63.1875 19.132812 C 62.769531 18.875 62.222656 19.324219 61.839844 19.441406 C 61.453125 19.558594 60.734375 19.550781 60.734375 19.550781 " fill-opacity="1" fill-rule="evenodd"/></g><g clip-path="url(#65025801fe)"><path fill="#384860" d="M 60.734375 11.769531 L 61.375 13.746094 L 63.457031 13.742188 L 61.769531 14.964844 L 62.417969 16.941406 L 60.734375 15.714844 L 59.054688 16.941406 L 59.703125 14.964844 L 58.015625 13.742188 L 60.097656 13.746094 Z M 60.734375 11.769531 " fill-opacity="1" fill-rule="evenodd"/></g><path fill="#384860" d="M 67.34375 14.402344 L 67.78125 15.746094 L 69.191406 15.742188 L 68.046875 16.570312 L 68.484375 17.910156 L 67.34375 17.078125 L 66.207031 17.910156 L 66.644531 16.570312 L 65.5 15.742188 L 66.910156 15.746094 Z M 67.34375 14.402344 " fill-opacity="1" fill-rule="evenodd"/><path fill="#384860" d="M 71.15625 18.21875 L 71.460938 19.171875 L 72.460938 19.167969 L 71.652344 19.753906 L 71.960938 20.703125 L 71.15625 20.113281 L 70.347656 20.703125 L 70.660156 19.753906 L 69.851562 19.167969 L 70.847656 19.171875 Z M 71.15625 18.21875 " fill-opacity="1" fill-rule="evenodd"/><path fill="#384860" d="M 54.125 14.402344 L 53.691406 15.746094 L 52.28125 15.742188 L 53.425781 16.570312 L 52.984375 17.910156 L 54.125 17.078125 L 55.265625 17.910156 L 54.828125 16.570312 L 55.972656 15.742188 L 54.558594 15.746094 Z M 54.125 14.402344 " fill-opacity="1" fill-rule="evenodd"/><path fill="#384860" d="M 50.316406 18.21875 L 50.007812 19.171875 L 49.011719 19.167969 L 49.820312 19.753906 L 49.507812 20.703125 L 50.316406 20.113281 L 51.125 20.703125 L 50.8125 19.753906 L 51.621094 19.167969 L 50.625 19.171875 Z M 50.316406 18.21875 " fill-opacity="1" fill-rule="evenodd"/><g fill="#384860" fill-opacity="1"><g transform="translate(45.721214, 68.621344)"><g><path d="M 4.96875 0 C 4.945312 -0.0820312 4.921875 -0.160156 4.890625 -0.234375 C 4.867188 -0.304688 4.847656 -0.398438 4.828125 -0.515625 C 4.816406 -0.628906 4.804688 -0.769531 4.796875 -0.9375 C 4.796875 -1.113281 4.796875 -1.328125 4.796875 -1.578125 L 4.796875 -3.609375 C 4.796875 -4.210938 4.6875 -4.632812 4.46875 -4.875 C 4.257812 -5.125 3.925781 -5.25 3.46875 -5.25 L 2.765625 -5.25 L 2.765625 0 L 0.734375 0 L 0.734375 -12.890625 L 3.796875 -12.890625 C 4.847656 -12.890625 5.609375 -12.644531 6.078125 -12.15625 C 6.554688 -11.664062 6.796875 -10.921875 6.796875 -9.921875 L 6.796875 -8.921875 C 6.796875 -7.585938 6.351562 -6.710938 5.46875 -6.296875 C 5.988281 -6.085938 6.34375 -5.742188 6.53125 -5.265625 C 6.71875 -4.796875 6.8125 -4.226562 6.8125 -3.5625 L 6.8125 -1.5625 C 6.8125 -1.25 6.820312 -0.972656 6.84375 -0.734375 C 6.875 -0.492188 6.9375 -0.25 7.03125 0 Z M 2.765625 -11.046875 L 2.765625 -7.09375 L 3.5625 -7.09375 C 3.9375 -7.09375 4.226562 -7.191406 4.4375 -7.390625 C 4.65625 -7.585938 4.765625 -7.941406 4.765625 -8.453125 L 4.765625 -9.734375 C 4.765625 -10.191406 4.679688 -10.523438 4.515625 -10.734375 C 4.359375 -10.941406 4.097656 -11.046875 3.734375 -11.046875 Z M 2.765625 -11.046875 "/></g></g></g><g fill="#384860" fill-opacity="1"><g transform="translate(57.384879, 68.621344)"><g><path d="M 2.59375 -2.96875 C 2.59375 -2.5 2.6875 -2.164062 2.875 -1.96875 C 3.070312 -1.78125 3.328125 -1.6875 3.640625 -1.6875 C 3.960938 -1.6875 4.21875 -1.78125 4.40625 -1.96875 C 4.601562 -2.164062 4.703125 -2.5 4.703125 -2.96875 L 4.703125 -9.921875 C 4.703125 -10.390625 4.601562 -10.71875 4.40625 -10.90625 C 4.21875 -11.101562 3.960938 -11.203125 3.640625 -11.203125 C 3.328125 -11.203125 3.070312 -11.101562 2.875 -10.90625 C 2.6875 -10.71875 2.59375 -10.390625 2.59375 -9.921875 Z M 0.578125 -9.796875 C 0.578125 -10.835938 0.835938 -11.640625 1.359375 -12.203125 C 1.890625 -12.765625 2.648438 -13.046875 3.640625 -13.046875 C 4.640625 -13.046875 5.398438 -12.765625 5.921875 -12.203125 C 6.453125 -11.640625 6.71875 -10.835938 6.71875 -9.796875 L 6.71875 -3.09375 C 6.71875 -2.050781 6.453125 -1.25 5.921875 -0.6875 C 5.398438 -0.132812 4.640625 0.140625 3.640625 0.140625 C 2.648438 0.140625 1.890625 -0.132812 1.359375 -0.6875 C 0.835938 -1.25 0.578125 -2.050781 0.578125 -3.09375 Z M 0.578125 -9.796875 "/></g></g></g><g fill="#384860" fill-opacity="1"><g transform="translate(68.937991, 68.621344)"><g><path d="M 2.640625 -4.28125 L 0.078125 -12.890625 L 2.1875 -12.890625 L 3.734375 -7.015625 L 5.28125 -12.890625 L 7.21875 -12.890625 L 4.65625 -4.28125 L 4.65625 0 L 2.640625 0 Z M 2.640625 -4.28125 "/></g></g></g><g fill="#384860" fill-opacity="1"><g transform="translate(56.321536, 80.858071)"><g><path d="M 0.59375 -3.597656 C 0.558594 -3.597656 0.511719 -3.597656 0.417969 -3.550781 L 0.144531 -3.410156 C 0.105469 -3.390625 0.0898438 -3.332031 0.0976562 -3.285156 L 0.0976562 -2.910156 C 0.101562 -2.886719 0.113281 -2.847656 0.152344 -2.847656 C 0.160156 -2.847656 0.171875 -2.847656 0.183594 -2.855469 L 0.457031 -2.996094 L 0.457031 -0.09375 C 0.457031 -0.0429688 0.46875 0 0.535156 0 L 1.015625 0 C 1.074219 0 1.097656 -0.0351562 1.097656 -0.0976562 L 1.097656 -3.5 C 1.097656 -3.558594 1.066406 -3.597656 1.011719 -3.597656 Z M 0.59375 -3.597656 "/></g></g></g><g fill="#384860" fill-opacity="1"><g transform="translate(57.98565, 80.858071)"><g><path d="M 1.367188 -2.308594 C 1.367188 -2.144531 1.238281 -2.011719 1.070312 -2.011719 C 0.882812 -2.011719 0.769531 -2.144531 0.769531 -2.308594 L 0.769531 -2.757812 C 0.769531 -2.917969 0.90625 -3.050781 1.070312 -3.050781 C 1.234375 -3.050781 1.367188 -2.917969 1.367188 -2.753906 Z M 2.011719 -2.753906 C 2.011719 -3.292969 1.542969 -3.660156 1.070312 -3.660156 C 0.597656 -3.660156 0.128906 -3.300781 0.128906 -2.757812 L 0.128906 -2.308594 C 0.128906 -1.742188 0.414062 -1.417969 0.957031 -1.417969 C 1.136719 -1.417969 1.292969 -1.5 1.371094 -1.605469 L 1.371094 -0.933594 C 1.371094 -0.601562 1.199219 -0.546875 1.074219 -0.546875 C 0.929688 -0.546875 0.789062 -0.664062 0.789062 -0.910156 L 0.789062 -0.960938 C 0.789062 -1.050781 0.777344 -1.089844 0.699219 -1.089844 L 0.242188 -1.089844 C 0.15625 -1.089844 0.144531 -1.035156 0.144531 -0.957031 L 0.144531 -0.886719 C 0.144531 -0.3125 0.542969 0.0585938 1.074219 0.0585938 C 1.671875 0.0585938 2.011719 -0.363281 2.011719 -0.859375 Z M 2.011719 -2.753906 "/></g></g></g><g fill="#384860" fill-opacity="1"><g transform="translate(60.493186, 80.858071)"><g><path d="M 1.367188 -2.308594 C 1.367188 -2.144531 1.238281 -2.011719 1.070312 -2.011719 C 0.882812 -2.011719 0.769531 -2.144531 0.769531 -2.308594 L 0.769531 -2.757812 C 0.769531 -2.917969 0.90625 -3.050781 1.070312 -3.050781 C 1.234375 -3.050781 1.367188 -2.917969 1.367188 -2.753906 Z M 2.011719 -2.753906 C 2.011719 -3.292969 1.542969 -3.660156 1.070312 -3.660156 C 0.597656 -3.660156 0.128906 -3.300781 0.128906 -2.757812 L 0.128906 -2.308594 C 0.128906 -1.742188 0.414062 -1.417969 0.957031 -1.417969 C 1.136719 -1.417969 1.292969 -1.5 1.371094 -1.605469 L 1.371094 -0.933594 C 1.371094 -0.601562 1.199219 -0.546875 1.074219 -0.546875 C 0.929688 -0.546875 0.789062 -0.664062 0.789062 -0.910156 L 0.789062 -0.960938 C 0.789062 -1.050781 0.777344 -1.089844 0.699219 -1.089844 L 0.242188 -1.089844 C 0.15625 -1.089844 0.144531 -1.035156 0.144531 -0.957031 L 0.144531 -0.886719 C 0.144531 -0.3125 0.542969 0.0585938 1.074219 0.0585938 C 1.671875 0.0585938 2.011719 -0.363281 2.011719 -0.859375 Z M 2.011719 -2.753906 "/></g></g></g><g fill="#384860" fill-opacity="1"><g transform="translate(63.000722, 80.858071)"><g><path d="M 1.367188 -2.308594 C 1.367188 -2.144531 1.238281 -2.011719 1.070312 -2.011719 C 0.882812 -2.011719 0.769531 -2.144531 0.769531 -2.308594 L 0.769531 -2.757812 C 0.769531 -2.917969 0.90625 -3.050781 1.070312 -3.050781 C 1.234375 -3.050781 1.367188 -2.917969 1.367188 -2.753906 Z M 2.011719 -2.753906 C 2.011719 -3.292969 1.542969 -3.660156 1.070312 -3.660156 C 0.597656 -3.660156 0.128906 -3.300781 0.128906 -2.757812 L 0.128906 -2.308594 C 0.128906 -1.742188 0.414062 -1.417969 0.957031 -1.417969 C 1.136719 -1.417969 1.292969 -1.5 1.371094 -1.605469 L 1.371094 -0.933594 C 1.371094 -0.601562 1.199219 -0.546875 1.074219 -0.546875 C 0.929688 -0.546875 0.789062 -0.664062 0.789062 -0.910156 L 0.789062 -0.960938 C 0.789062 -1.050781 0.777344 -1.089844 0.699219 -1.089844 L 0.242188 -1.089844 C 0.15625 -1.089844 0.144531 -1.035156 0.144531 -0.957031 L 0.144531 -0.886719 C 0.144531 -0.3125 0.542969 0.0585938 1.074219 0.0585938 C 1.671875 0.0585938 2.011719 -0.363281 2.011719 -0.859375 Z M 2.011719 -2.753906 "/></g></g></g></svg>