<svg xmlns="http://www.w3.org/2000/svg" xmlns:xlink="http://www.w3.org/1999/xlink" width="32" zoomAndPan="magnify" viewBox="0 0 24 59.249999" height="79" preserveAspectRatio="xMidYMid meet" version="1.0"><defs><clipPath id="fc0835d08a"><path d="M 0.148438 21 L 7 21 L 7 27 L 0.148438 27 Z M 0.148438 21 " clip-rule="nonzero"/></clipPath><clipPath id="0c3ce2eb61"><path d="M 0.148438 26 L 8 26 L 8 32 L 0.148438 32 Z M 0.148438 26 " clip-rule="nonzero"/></clipPath><clipPath id="4b5698392b"><path d="M 0.148438 31 L 9 31 L 9 36 L 0.148438 36 Z M 0.148438 31 " clip-rule="nonzero"/></clipPath><clipPath id="780b64f8c9"><path d="M 10 53 L 20 53 L 20 57.769531 L 10 57.769531 Z M 10 53 " clip-rule="nonzero"/></clipPath><clipPath id="3340a49d8d"><path d="M 19 45 L 23.847656 45 L 23.847656 54 L 19 54 Z M 19 45 " clip-rule="nonzero"/></clipPath><clipPath id="416ddb9a36"><path d="M 7 0 L 23.847656 0 L 23.847656 57.769531 L 7 57.769531 Z M 7 0 " clip-rule="nonzero"/></clipPath><clipPath id="d3d183fa37"><path d="M 14 42 L 23.847656 42 L 23.847656 58.507812 L 14 58.507812 Z M 14 42 " clip-rule="nonzero"/></clipPath></defs><path fill="#2c2c2c" d="M 12.148438 7.808594 C 12.554688 6.53125 12.632812 5.121094 12.269531 3.734375 C 11.910156 2.359375 11.140625 1.234375 10.050781 0.574219 C 9.324219 1.976562 9.144531 3.558594 9.585938 4.9375 C 10.035156 6.324219 10.996094 7.269531 12.148438 7.808594 Z M 12.148438 7.808594 " fill-opacity="1" fill-rule="nonzero"/><path fill="#2c2c2c" d="M 13.179688 8.464844 C 14.160156 9.273438 15.4375 9.722656 16.765625 9.792969 C 18.09375 9.859375 19.253906 9.550781 20.175781 8.996094 C 19.289062 8.09375 18.132812 7.414062 16.785156 7.277344 C 15.441406 7.140625 14.152344 7.597656 13.179688 8.464844 Z M 13.179688 8.464844 " fill-opacity="1" fill-rule="nonzero"/><path fill="#2c2c2c" d="M 10.265625 11.160156 C 10.535156 9.824219 10.433594 8.375 9.917969 7.015625 C 9.382812 5.652344 8.488281 4.613281 7.300781 4.0625 C 6.734375 5.574219 6.71875 7.203125 7.335938 8.550781 C 7.949219 9.910156 9.035156 10.753906 10.265625 11.160156 Z M 10.265625 11.160156 " fill-opacity="1" fill-rule="nonzero"/><path fill="#2c2c2c" d="M 15.179688 12.625 C 16.53125 12.539062 17.675781 12.101562 18.539062 11.433594 C 17.542969 10.628906 16.273438 10.058594 14.90625 10.082031 C 13.519531 10.089844 12.28125 10.714844 11.390625 11.703125 C 12.480469 12.40625 13.828125 12.710938 15.179688 12.625 Z M 15.179688 12.625 " fill-opacity="1" fill-rule="nonzero"/><path fill="#2c2c2c" d="M 5.472656 12.5 C 6.269531 13.804688 7.472656 14.523438 8.769531 14.789062 C 8.820312 14.089844 8.769531 13.378906 8.640625 12.679688 C 8.492188 11.972656 8.265625 11.285156 7.914062 10.625 C 7.207031 9.300781 6.183594 8.355469 4.914062 7.9375 C 4.699219 8.734375 4.667969 9.566406 4.746094 10.335938 C 4.851562 11.117188 5.082031 11.851562 5.472656 12.5 Z M 5.472656 12.5 " fill-opacity="1" fill-rule="nonzero"/><path fill="#2c2c2c" d="M 9.976562 15.203125 C 11.164062 15.777344 12.570312 15.921875 13.917969 15.671875 C 14.597656 15.550781 15.226562 15.347656 15.757812 15.070312 C 16.316406 14.804688 16.765625 14.460938 17.175781 14.078125 C 16.070312 13.382812 14.714844 12.953125 13.335938 13.136719 C 12.640625 13.226562 11.980469 13.457031 11.421875 13.816406 C 10.839844 14.167969 10.359375 14.644531 9.976562 15.203125 Z M 9.976562 15.203125 " fill-opacity="1" fill-rule="nonzero"/><path fill="#2c2c2c" d="M 7.699219 18.648438 C 7.640625 17.929688 7.542969 17.222656 7.296875 16.527344 C 7.070312 15.832031 6.757812 15.160156 6.3125 14.53125 C 5.453125 13.285156 4.28125 12.4375 2.949219 12.175781 C 2.726562 13.855469 3.128906 15.519531 4.078125 16.734375 C 5.019531 17.957031 6.363281 18.542969 7.699219 18.648438 Z M 7.699219 18.648438 " fill-opacity="1" fill-rule="nonzero"/><path fill="#2c2c2c" d="M 8.96875 18.917969 C 10.253906 19.359375 11.660156 19.320312 13.023438 18.90625 C 14.375 18.488281 15.40625 17.769531 16.121094 16.902344 C 14.90625 16.328125 13.507812 16.0625 12.109375 16.410156 C 11.425781 16.589844 10.789062 16.902344 10.253906 17.332031 C 9.742188 17.765625 9.265625 18.300781 8.96875 18.917969 Z M 8.96875 18.917969 " fill-opacity="1" fill-rule="nonzero"/><path fill="#2c2c2c" d="M 7.082031 22.6875 C 6.96875 21.96875 6.722656 21.261719 6.421875 20.585938 C 6.109375 19.914062 5.683594 19.265625 5.179688 18.6875 C 4.152344 17.53125 2.84375 16.816406 1.46875 16.71875 C 1.472656 18.453125 2.066406 20.078125 3.179688 21.191406 C 4.308594 22.3125 5.703125 22.738281 7.082031 22.6875 Z M 7.082031 22.6875 " fill-opacity="1" fill-rule="nonzero"/><path fill="#2c2c2c" d="M 12.507812 22.300781 C 13.820312 21.703125 14.800781 20.851562 15.394531 19.878906 C 14.089844 19.445312 12.652344 19.351562 11.285156 19.878906 C 10.589844 20.140625 10.007812 20.542969 9.519531 21.042969 C 9.011719 21.539062 8.660156 22.148438 8.402344 22.804688 C 9.746094 23.09375 11.203125 22.890625 12.507812 22.300781 Z M 12.507812 22.300781 " fill-opacity="1" fill-rule="nonzero"/><g clip-path="url(#fc0835d08a)"><path fill="#2c2c2c" d="M 1.285156 23.925781 C 1.652344 24.660156 2.183594 25.296875 2.8125 25.792969 C 4.066406 26.789062 5.542969 27.0625 6.933594 26.847656 C 6.734375 26.136719 6.429688 25.445312 6.015625 24.800781 C 5.628906 24.15625 5.132812 23.554688 4.527344 23.03125 C 3.355469 21.988281 1.957031 21.425781 0.546875 21.488281 C 0.601562 21.925781 0.675781 22.351562 0.800781 22.757812 C 0.933594 23.167969 1.09375 23.558594 1.285156 23.925781 Z M 1.285156 23.925781 " fill-opacity="1" fill-rule="nonzero"/></g><path fill="#2c2c2c" d="M 12.398438 25.820312 C 13.027344 25.441406 13.550781 24.996094 14.003906 24.519531 C 14.226562 24.28125 14.421875 24.035156 14.585938 23.777344 C 14.753906 23.523438 14.917969 23.265625 15.039062 22.996094 C 13.667969 22.71875 12.1875 22.800781 10.859375 23.5 C 10.210938 23.851562 9.65625 24.328125 9.207031 24.894531 C 8.785156 25.460938 8.46875 26.117188 8.285156 26.816406 C 9.683594 26.953125 11.125 26.578125 12.398438 25.820312 Z M 12.398438 25.820312 " fill-opacity="1" fill-rule="nonzero"/><g clip-path="url(#0c3ce2eb61)"><path fill="#2c2c2c" d="M 2.957031 30.464844 C 4.328125 31.332031 5.882812 31.445312 7.257812 31.082031 C 6.679688 29.683594 5.714844 28.417969 4.398438 27.492188 C 3.058594 26.574219 1.601562 26.171875 0.171875 26.398438 C 0.363281 27.265625 0.742188 28.066406 1.195312 28.761719 C 1.660156 29.457031 2.277344 30.03125 2.957031 30.464844 Z M 2.957031 30.464844 " fill-opacity="1" fill-rule="nonzero"/></g><path fill="#2c2c2c" d="M 14.164062 27.921875 C 14.574219 27.382812 14.835938 26.8125 15.039062 26.234375 C 13.625 26.109375 12.105469 26.367188 10.871094 27.238281 C 9.605469 28.105469 8.835938 29.445312 8.628906 30.902344 C 10.074219 30.890625 11.46875 30.359375 12.683594 29.4375 C 13.292969 28.980469 13.765625 28.464844 14.164062 27.921875 Z M 14.164062 27.921875 " fill-opacity="1" fill-rule="nonzero"/><g clip-path="url(#4b5698392b)"><path fill="#2c2c2c" d="M 3.636719 35.214844 C 5.148438 35.964844 6.6875 35.898438 8.054688 35.351562 C 7.351562 33.992188 6.160156 32.792969 4.75 32.003906 C 3.304688 31.21875 1.757812 30.984375 0.339844 31.367188 C 0.648438 32.203125 1.09375 32.972656 1.628906 33.621094 C 2.199219 34.289062 2.890625 34.84375 3.636719 35.214844 Z M 3.636719 35.214844 " fill-opacity="1" fill-rule="nonzero"/></g><path fill="#2c2c2c" d="M 14.703125 31.414062 C 15.0625 30.816406 15.285156 30.195312 15.40625 29.578125 C 13.949219 29.601562 12.460938 30.035156 11.292969 31.058594 C 10.078125 32.089844 9.503906 33.488281 9.417969 35 C 10.859375 34.8125 12.257812 34.085938 13.378906 33.046875 C 13.941406 32.527344 14.375 31.984375 14.703125 31.414062 Z M 14.703125 31.414062 " fill-opacity="1" fill-rule="nonzero"/><path fill="#2c2c2c" d="M 4.921875 40.015625 C 6.566406 40.550781 8.128906 40.285156 9.4375 39.5625 C 8.464844 38.308594 7.234375 37.234375 5.636719 36.605469 C 4.832031 36.296875 4.070312 36.113281 3.304688 36.082031 C 2.539062 36.050781 1.789062 36.175781 1.097656 36.457031 C 1.46875 37.335938 2.085938 38.0625 2.722656 38.675781 C 3.375 39.28125 4.085938 39.757812 4.921875 40.015625 Z M 4.921875 40.015625 " fill-opacity="1" fill-rule="nonzero"/><path fill="#2c2c2c" d="M 14.496094 36.546875 C 14.960938 35.949219 15.382812 35.3125 15.652344 34.691406 C 15.9375 34.066406 16.039062 33.445312 16.148438 32.84375 C 15.414062 32.949219 14.683594 33.148438 13.996094 33.46875 C 13.308594 33.789062 12.648438 34.234375 12.140625 34.8125 C 11.097656 35.964844 10.578125 37.523438 10.773438 39.03125 C 12.21875 38.660156 13.527344 37.753906 14.496094 36.546875 Z M 14.496094 36.546875 " fill-opacity="1" fill-rule="nonzero"/><path fill="#2c2c2c" d="M 11.3125 43.664062 C 10.742188 43.089844 10.144531 42.554688 9.4375 42.125 C 8.738281 41.695312 7.9375 41.371094 7.128906 41.140625 C 5.488281 40.695312 3.851562 40.839844 2.519531 41.585938 C 2.785156 41.980469 3.074219 42.351562 3.386719 42.691406 C 3.542969 42.863281 3.703125 43.023438 3.871094 43.175781 C 4.046875 43.324219 4.226562 43.460938 4.414062 43.589844 C 5.152344 44.101562 5.953125 44.46875 6.796875 44.648438 C 8.496094 45 10.078125 44.539062 11.3125 43.664062 Z M 11.3125 43.664062 " fill-opacity="1" fill-rule="nonzero"/><path fill="#2c2c2c" d="M 16.101562 40.023438 C 16.539062 39.34375 16.847656 38.652344 17.027344 37.972656 C 17.070312 37.804688 17.109375 37.636719 17.136719 37.46875 C 17.175781 37.300781 17.210938 37.132812 17.234375 36.964844 C 17.285156 36.632812 17.304688 36.308594 17.292969 35.992188 C 15.828125 36.386719 14.441406 37.183594 13.492188 38.511719 C 12.996094 39.179688 12.722656 39.902344 12.574219 40.664062 C 12.433594 41.425781 12.417969 42.230469 12.609375 42.980469 C 14.042969 42.433594 15.238281 41.382812 16.101562 40.023438 Z M 16.101562 40.023438 " fill-opacity="1" fill-rule="nonzero"/><path fill="#2c2c2c" d="M 13.648438 47.625 C 12.433594 46.535156 10.867188 45.78125 9.15625 45.515625 C 7.433594 45.265625 5.789062 45.609375 4.527344 46.515625 C 5.152344 47.230469 5.875 47.839844 6.648438 48.289062 C 7.441406 48.722656 8.300781 48.988281 9.171875 49.078125 C 10.914062 49.261719 12.476562 48.636719 13.648438 47.625 Z M 13.648438 47.625 " fill-opacity="1" fill-rule="nonzero"/><path fill="#2c2c2c" d="M 18.148438 43.433594 C 18.515625 42.695312 18.734375 41.953125 18.84375 41.234375 C 18.976562 40.507812 18.984375 39.804688 18.863281 39.148438 C 17.417969 39.714844 16.117188 40.691406 15.320312 42.144531 C 14.496094 43.609375 14.414062 45.273438 14.894531 46.800781 C 16.296875 46.101562 17.40625 44.917969 18.148438 43.433594 Z M 18.148438 43.433594 " fill-opacity="1" fill-rule="nonzero"/><path fill="#2c2c2c" d="M 16.394531 51.417969 C 15.050781 50.429688 13.410156 49.800781 11.640625 49.710938 C 9.859375 49.644531 8.25 50.152344 7.046875 51.199219 C 7.738281 51.863281 8.53125 52.382812 9.355469 52.757812 C 10.1875 53.121094 11.089844 53.304688 11.976562 53.308594 C 13.761719 53.324219 15.296875 52.550781 16.394531 51.417969 Z M 16.394531 51.417969 " fill-opacity="1" fill-rule="nonzero"/><path fill="#2c2c2c" d="M 17.570312 45.6875 C 16.894531 47.253906 16.949219 48.964844 17.585938 50.46875 C 18.949219 49.632812 19.972656 48.332031 20.582031 46.75 C 20.886719 45.960938 21.027344 45.183594 21.074219 44.429688 C 21.132812 43.667969 21.046875 42.949219 20.867188 42.277344 C 19.457031 42.992188 18.214844 44.132812 17.570312 45.6875 Z M 17.570312 45.6875 " fill-opacity="1" fill-rule="nonzero"/><g clip-path="url(#780b64f8c9)"><path fill="#2c2c2c" d="M 14.535156 53.722656 C 12.726562 53.808594 11.132812 54.484375 10.007812 55.652344 C 10.769531 56.25 11.605469 56.71875 12.480469 57.011719 C 13.367188 57.296875 14.273438 57.421875 15.183594 57.34375 C 17.019531 57.183594 18.484375 56.292969 19.511719 55.039062 C 18.785156 54.589844 17.988281 54.25 17.160156 54.015625 C 16.316406 53.792969 15.4375 53.683594 14.535156 53.722656 Z M 14.535156 53.722656 " fill-opacity="1" fill-rule="nonzero"/></g><g clip-path="url(#3340a49d8d)"><path fill="#2c2c2c" d="M 19.929688 51.601562 C 20.003906 52.433594 20.257812 53.230469 20.644531 53.96875 C 21.945312 53.007812 22.90625 51.570312 23.363281 49.929688 C 23.597656 49.105469 23.699219 48.285156 23.664062 47.519531 C 23.640625 46.742188 23.503906 46.003906 23.242188 45.332031 C 21.875 46.183594 20.730469 47.457031 20.203125 49.101562 C 19.933594 49.929688 19.84375 50.78125 19.929688 51.601562 Z M 19.929688 51.601562 " fill-opacity="1" fill-rule="nonzero"/></g><g clip-path="url(#416ddb9a36)"><path fill="#2c2c2c" d="M 18.097656 51.5 C 16.5 49.625 15.03125 47.632812 13.734375 45.539062 C 13.402344 45.019531 13.074219 44.5 12.785156 43.957031 C 12.488281 43.414062 12.179688 42.882812 11.890625 42.335938 C 11.367188 41.226562 10.792969 40.128906 10.371094 38.972656 C 9.875 37.84375 9.539062 36.65625 9.164062 35.484375 C 8.980469 34.894531 8.878906 34.289062 8.730469 33.691406 C 8.597656 33.089844 8.445312 32.492188 8.367188 31.878906 C 7.550781 27.007812 7.640625 21.960938 8.867188 17.160156 C 9.808594 13.476562 11.417969 9.960938 13.589844 6.824219 C 15.136719 6.378906 16.550781 5.570312 17.699219 4.351562 C 18.871094 3.128906 19.574219 1.675781 20 0.113281 C 18.363281 0.00390625 16.605469 0.71875 15.308594 2.078125 C 14.023438 3.4375 13.433594 5.175781 13.539062 6.78125 C 11.300781 9.882812 9.605469 13.382812 8.585938 17.085938 C 7.25 21.90625 7.058594 27.015625 7.789062 31.964844 C 7.859375 32.589844 7.996094 33.203125 8.125 33.816406 C 8.261719 34.429688 8.355469 35.054688 8.53125 35.65625 C 8.886719 36.859375 9.207031 38.078125 9.691406 39.238281 C 10.101562 40.429688 10.660156 41.554688 11.175781 42.699219 C 11.453125 43.261719 11.757812 43.808594 12.050781 44.363281 C 12.335938 44.925781 12.660156 45.460938 12.988281 46 C 14.269531 48.15625 15.722656 50.210938 17.3125 52.152344 C 18.902344 54.097656 20.601562 55.945312 22.464844 57.65625 C 22.71875 57.890625 23.109375 57.878906 23.316406 57.625 C 23.523438 57.375 23.492188 57.003906 23.242188 56.785156 C 21.40625 55.164062 19.695312 53.375 18.097656 51.5 Z M 18.097656 51.5 " fill-opacity="1" fill-rule="nonzero"/></g><g clip-path="url(#d3d183fa37)"><path stroke-linecap="butt" transform="matrix(0.722495, 0.16287, -0.16287, 0.722495, 22.649881, 49.743193)" fill="none" stroke-linejoin="miter" d="M 0.0014228 0.998511 L 1.48825 0.998549 " stroke="#2c2c2c" stroke-width="2" stroke-opacity="1" stroke-miterlimit="4"/></g></svg>