<svg width="1369" height="330" viewBox="0 0 1369 330" fill="none" xmlns="http://www.w3.org/2000/svg">
<path d="M1126.24 173.501L1154.4 224.934C1154.4 224.934 1121.47 199.653 1111.47 186.572C1103.75 176.551 1093.53 164.558 1081.72 159.112C1078.31 160.637 1075.36 161.944 1074.22 162.598C1033.34 190.711 1022.44 193.118 984.732 161.291C972.916 151.259 966.333 134.474 937.933 120.532C935.663 119.443 928.399 116.817 921.123 114.639C925.902 122.274 932.939 130.988 941.112 137.099C927.945 134.256 917.037 128.374 908.184 120.532C904.779 117.482 901.816 115.51 899.546 113.985C896.141 117.482 892.963 123.364 889.784 126.196C887.514 128.156 885.698 130.335 883.87 132.513C879.33 135.563 873.882 139.277 870.023 141.892C862.066 147.555 815.279 142.545 820.954 150.605C826.868 158.677 837.991 181.126 854.348 197.911C856.391 199.871 874.563 218.181 908.638 239.759C880.011 234.095 859.569 226.024 842.304 210.11C828.457 197.257 817.322 182.215 805.279 167.826C777.118 134.038 749.412 92.4075 713.294 66.691C707.607 77.583 736.006 129.245 730.331 140.149C718.969 129.245 669.9 71.7013 662.863 57.7481C643.328 90.447 613.579 125.324 585.86 151.694C575.645 161.509 532.478 236.927 521.128 245.858C516.815 241.502 546.791 170.222 542.478 165.865C531.343 154.973 524.079 155.845 512.944 144.941C490.004 112.896 467.519 144.07 457.291 154.091C344.183 265.258 365.761 254.801 350.539 286.411C348.723 290.332 341.913 285.757 341.913 281.389C341.686 255.019 334.637 228.638 321.686 205.535C309.881 198.346 306.249 178.294 295.114 172.836C270.586 191.811 229.02 231.917 236.511 213.389C240.37 203.792 247.419 193.554 255.137 184.393C241.959 192.247 229.247 202.05 220.382 208.585C211.982 214.696 204.479 221.667 197.215 228.855C150.882 275.725 87.0458 301.66 24.8105 326.299C16.8653 329.348 6.86511 332.18 0.735962 326.516C23.6754 323.031 47.296 310.603 79.3276 294.689C116.126 276.597 159.508 227.331 192.902 204.228C219.247 185.918 242.64 163.905 264.229 140.584C280.801 122.71 307.838 142.763 323.06 153.873C338.95 165.43 347.588 195.515 358.257 211.646C391.878 185.265 439.585 148.209 473.421 121.839C478.427 117.918 483.875 113.767 490.231 112.678C497.053 111.589 503.636 113.985 509.993 116.599C527.938 123.364 545.656 130.335 563.602 137.099C609.935 99.3899 645.598 52.9556 675.36 1.94673C696.483 -3.93494 709.65 15.0286 720.104 33.5564C743.27 74.5332 787.106 100.261 828.23 119.878C832.543 121.839 836.175 125.542 840.942 126.196C850.489 127.285 859.115 127.285 866.845 121.621C878.876 112.896 887.06 99.3899 904.325 88.4864C918.626 88.4864 954.29 111.807 972.008 125.76C1009.71 155.627 1008.81 170.658 1054 146.466C1057.64 144.506 1061.05 142.327 1064.01 139.713C1073.77 130.988 1091.71 118.136 1104.21 120.096C1111.7 121.403 1140.78 151.476 1146.68 156.498C1180.53 184.611 1191.2 186.354 1220.73 218.835C1287.96 292.946 1306.14 292.946 1368.83 329.566C1281.15 315.177 1213.46 228.202 1137.83 183.086C1136.46 182.65 1131.92 178.512 1126.24 173.501Z" fill="#1E1E1E"/>
</svg>
